<svg width="40" height="40" viewBox="0 0 40 40" fill="none" xmlns="http://www.w3.org/2000/svg">
<path d="M18.3333 30.8335L14.1667 25.8335V20.8335H22.5V25.8335L18.3333 30.8335Z" fill="#FF9800"/>
<path d="M25.8333 14.167C24.9125 14.167 24.1667 14.9128 24.1667 15.8337C24.1667 16.7545 24.9125 17.5003 25.8333 17.5003C26.7542 17.5003 27.5 16.7545 27.5 15.8337C27.5 14.9128 26.7542 14.167 25.8333 14.167ZM10.8333 14.167C9.91249 14.167 9.16666 14.9128 9.16666 15.8337C9.16666 16.7545 9.91249 17.5003 10.8333 17.5003C11.7542 17.5003 12.5 16.7545 12.5 15.8337C12.5 14.9128 11.7542 14.167 10.8333 14.167Z" fill="#FFA726"/>
<path d="M25.8333 10.8335C25.8333 4.50021 10.8333 6.66688 10.8333 10.8335C10.8333 11.7502 10.8333 15.7502 10.8333 16.6669C10.8333 20.8335 14.1667 24.1669 18.3333 24.1669C22.5 24.1669 25.8333 20.8335 25.8333 16.6669C25.8333 15.7502 25.8333 11.7502 25.8333 10.8335Z" fill="#FFB74D"/>
<path d="M18.3333 3.3335C13.25 3.3335 10 7.41683 10 12.5002C10 13.1668 10 14.4168 10 14.4168L11.6667 15.8335V11.6668L21.6667 8.3335L25 11.6668V15.8335L26.6667 14.4168C26.6667 14.4168 26.6667 13.1668 26.6667 12.5002C26.6667 9.16683 25.8333 5.8335 21.6667 5.00016L20.8333 3.3335H18.3333Z" fill="#FF5722"/>
<path d="M21.6667 15.0002C21.2067 15.0002 20.8333 15.3736 20.8333 15.8336C20.8333 16.2936 21.2067 16.6669 21.6667 16.6669C22.1267 16.6669 22.5 16.2936 22.5 15.8336C22.5 15.3736 22.1267 15.0002 21.6667 15.0002ZM15 15.0002C14.54 15.0002 14.1667 15.3736 14.1667 15.8336C14.1667 16.2936 14.54 16.6669 15 16.6669C15.46 16.6669 15.8333 16.2936 15.8333 15.8336C15.8333 15.3736 15.46 15.0002 15 15.0002Z" fill="#784719"/>
<path d="M22.5 25.8335L18.3333 26.6668L14.1667 25.8335C14.1667 25.8335 5 27.5002 5 36.6668H31.6667C31.6667 27.5002 22.5 25.8335 22.5 25.8335Z" fill="#CFD8DC"/>
<path d="M17.5 29.167L16.6667 36.667H20L19.1667 29.167L20 28.3337L18.3333 26.667L16.6667 28.3337L17.5 29.167Z" fill="#3F51B5"/>
<path d="M27.2392 31.821L25.0092 37.2619L27.685 36.9052L29.8258 39.1352L30.7175 32.6244L27.2392 31.821Z" fill="#FF8F00"/>
<path d="M34.0175 32.0002L36.2475 37.4402L33.5717 37.0836L31.4308 39.3136L30.5392 32.8027L34.0175 32.0002Z" fill="#FF8F00"/>
<path d="M30.8517 35.6561C33.9302 35.6561 36.4258 33.1605 36.4258 30.082C36.4258 27.0035 33.9302 24.5078 30.8517 24.5078C27.7731 24.5078 25.2775 27.0035 25.2775 30.082C25.2775 33.1605 27.7731 35.6561 30.8517 35.6561Z" fill="#F34336"/>
<path d="M30.8959 25.012L32.0333 28.5111H35.7125L32.7359 30.6745L33.8725 34.1736L30.8959 32.0111L27.9192 34.1736L29.0567 30.6745L26.08 28.5111H29.7592L30.8959 25.012Z" fill="#FFD600"/>
</svg>
