<svg width="40" height="41" viewBox="0 0 40 41" fill="none" xmlns="http://www.w3.org/2000/svg">
<path d="M26.6361 24.9194L33.0769 35.654L28.0769 34.1156L26.1538 37.9617L23.3508 26.7479H25.58L26.6361 24.9194Z" fill="#FFCC66"/>
<path d="M15.88 26.7479L13.0769 37.9617L11.1539 34.1156L6.15387 35.654L12.5946 24.9194L13.6508 26.7479H15.88Z" fill="#FFCC66"/>
<path d="M29.9462 13.7257L31.5446 16.4942L29.9462 19.2626V22.4588L27.1785 24.0572C25.0079 27.8156 25.7315 26.5626 25.5801 26.8249C24.8119 26.8249 23.0476 26.8249 22.3839 26.8249L19.6154 28.4234L16.8469 26.8249C16.1847 26.8249 14.4183 26.8249 13.6508 26.8249C13.4992 26.5625 14.223 27.8157 12.0523 24.0573L9.28462 22.4589V19.2627L7.68616 16.4942L9.28462 13.7258V10.5296L12.0523 8.93117L13.6508 6.16348H16.8469L19.6154 4.56494L22.3838 6.1634H25.58L27.1785 8.93109L29.9461 10.5296L29.9462 13.7257Z" fill="#FF5987"/>
<path d="M19.6154 9.18628C23.6516 9.18628 26.9231 12.4578 26.9231 16.494C26.9231 20.5301 23.6516 23.8017 19.6154 23.8017C15.5792 23.8017 12.3077 20.5301 12.3077 16.494C12.3077 12.4578 15.5792 9.18628 19.6154 9.18628Z" fill="#414A56"/>
<path d="M34.2308 6.11572C35.0808 6.11572 35.7692 6.80418 35.7692 7.65418C35.7692 8.50418 35.0808 9.19265 34.2308 9.19265C33.3808 9.19265 32.6923 8.50418 32.6923 7.65418C32.6923 6.80418 33.3808 6.11572 34.2308 6.11572Z" fill="#4A78FF"/>
<path d="M5.38462 24.1926C6.44693 24.1926 7.3077 25.0534 7.3077 26.1157C7.3077 27.178 6.44693 28.0388 5.38462 28.0388C4.32232 28.0388 3.46155 27.178 3.46155 26.1157C3.46155 25.0534 4.32232 24.1926 5.38462 24.1926Z" fill="#4A78FF"/>
<path d="M24.2776 13.761C24.7277 14.2118 24.7277 14.9426 24.2776 15.3933L19.9262 19.7449L18.2939 21.3763L16.6623 19.7449L15.0308 18.1126C14.8054 17.8872 14.6923 17.5918 14.6923 17.2972C14.6923 17.0018 14.8054 16.7064 15.0308 16.481C15.4816 16.0303 16.2116 16.0303 16.6623 16.481L18.2939 18.1126L22.6455 13.761C22.8709 13.5356 23.1662 13.4233 23.4616 13.4233C23.7569 13.4233 24.0523 13.5356 24.2776 13.761Z" fill="#68CA44"/>
<path d="M36.7308 33.8079C37.0494 33.8079 37.3077 33.5496 37.3077 33.231C37.3077 32.9123 37.0494 32.6541 36.7308 32.6541C36.4122 32.6541 36.1539 32.9123 36.1539 33.231C36.1539 33.5496 36.4122 33.8079 36.7308 33.8079Z" fill="#95E6F9"/>
<path d="M35.1923 13.8079C35.5109 13.8079 35.7692 13.5496 35.7692 13.231C35.7692 12.9123 35.5109 12.6541 35.1923 12.6541C34.8737 12.6541 34.6154 12.9123 34.6154 13.231C34.6154 13.5496 34.8737 13.8079 35.1923 13.8079Z" fill="#95E6F9"/>
<path d="M32.5 24.1927C32.8186 24.1927 33.0769 23.9344 33.0769 23.6157C33.0769 23.2971 32.8186 23.0388 32.5 23.0388C32.1814 23.0388 31.9231 23.2971 31.9231 23.6157C31.9231 23.9344 32.1814 24.1927 32.5 24.1927Z" fill="#95E6F9"/>
<path d="M28.2692 4.19266C28.5879 4.19266 28.8462 3.93437 28.8462 3.61574C28.8462 3.29712 28.5879 3.03882 28.2692 3.03882C27.9506 3.03882 27.6923 3.29712 27.6923 3.61574C27.6923 3.93437 27.9506 4.19266 28.2692 4.19266Z" fill="#95E6F9"/>
<path d="M20.5769 34.9617C20.8955 34.9617 21.1538 34.7034 21.1538 34.3848C21.1538 34.0662 20.8955 33.8079 20.5769 33.8079C20.2583 33.8079 20 34.0662 20 34.3848C20 34.7034 20.2583 34.9617 20.5769 34.9617Z" fill="#95E6F9"/>
<path d="M8.65383 5.73099C8.97245 5.73099 9.23075 5.4727 9.23075 5.15407C9.23075 4.83545 8.97245 4.57715 8.65383 4.57715C8.3352 4.57715 8.0769 4.83545 8.0769 5.15407C8.0769 5.4727 8.3352 5.73099 8.65383 5.73099Z" fill="#95E6F9"/>
<path d="M6.53847 20.731C6.8571 20.731 7.11539 20.4727 7.11539 20.1541C7.11539 19.8354 6.8571 19.5771 6.53847 19.5771C6.21985 19.5771 5.96155 19.8354 5.96155 20.1541C5.96155 20.4727 6.21985 20.731 6.53847 20.731Z" fill="#95E6F9"/>
<path d="M4.03847 33.0386C4.3571 33.0386 4.61539 32.7803 4.61539 32.4617C4.61539 32.1431 4.3571 31.8848 4.03847 31.8848C3.71985 31.8848 3.46155 32.1431 3.46155 32.4617C3.46155 32.7803 3.71985 33.0386 4.03847 33.0386Z" fill="#95E6F9"/>
<path d="M3.26924 14.5772C3.58787 14.5772 3.84617 14.3189 3.84617 14.0003C3.84617 13.6816 3.58787 13.4233 3.26924 13.4233C2.95062 13.4233 2.69232 13.6816 2.69232 14.0003C2.69232 14.3189 2.95062 14.5772 3.26924 14.5772Z" fill="#95E6F9"/>
</svg>
