<svg width="164" height="70" viewBox="0 0 164 70" fill="none" xmlns="http://www.w3.org/2000/svg">
<g filter="url(#filter0_ddddd_1_2284)">
<path d="M65.4494 20.975C64.8494 20.975 64.4494 20.475 64.4494 19.975C64.4494 19.875 64.5494 14.375 61.1494 12.275C60.6494 11.975 60.5494 11.375 60.8494 10.875C61.1494 10.375 61.7494 10.275 62.2494 10.575C66.6494 13.375 66.5494 19.775 66.5494 20.075C66.4494 20.575 65.9494 20.975 65.4494 20.975Z" fill="#8BC34A"/>
<path d="M61.6492 2.97481C56.8492 0.574811 49.3492 3.27481 47.4492 3.97481C50.2492 5.67481 49.8492 14.8748 54.9492 16.5748C58.5492 17.7748 61.3492 16.3748 61.6492 11.3748C65.6492 9.07481 65.0492 4.67481 61.6492 2.97481ZM65.4492 23.9748C64.8492 23.9748 64.4492 23.5748 64.4492 22.9748V19.9748C64.4492 12.1748 70.2492 10.9748 70.2492 10.9748C70.7492 10.8748 71.3492 11.2748 71.4492 11.7748C71.5492 12.2748 71.1492 12.8748 70.6492 12.9748C70.4492 12.9748 66.4492 13.8748 66.4492 19.9748V22.9748C66.4492 23.5748 66.0492 23.9748 65.4492 23.9748Z" fill="#8BC34A"/>
<path d="M71.6495 4.27467C76.0495 2.87467 82.0495 6.97467 83.4495 7.97467C80.8495 8.97467 79.1495 17.2747 74.5495 17.8747C71.3495 18.2747 69.6495 16.5747 70.4495 11.9747C66.8495 9.17467 68.5495 5.17467 71.6495 4.27467Z" fill="#8BC34A"/>
<path d="M54.9492 16.5746C49.8492 14.8746 50.2492 5.67461 47.4492 3.97461C49.9492 4.17461 53.5492 6.37461 61.6492 11.3746C61.3492 16.3746 58.6492 17.7746 54.9492 16.5746ZM74.6492 17.8746C79.1492 17.2746 80.8492 8.97461 83.5492 7.97461C81.4492 7.67461 78.1492 8.87461 70.5492 11.9746C68.8492 16.4746 71.3492 18.3746 74.6492 17.8746Z" fill="#689F38"/>
<path d="M54.4492 22.9746L57.4492 37.9746H73.4492L76.4492 22.9746H54.4492Z" fill="#E64A19"/>
<path d="M76.4492 25.9746H54.4492C53.8492 25.9746 53.4492 25.4746 53.4492 24.9746V20.9746H77.4492V24.9746C77.4492 25.4746 76.9492 25.9746 76.4492 25.9746Z" fill="#BF360C"/>
</g>
<defs>
<filter id="filter0_ddddd_1_2284" x="-32.5508" y="0" width="196.1" height="217.975" filterUnits="userSpaceOnUse" color-interpolation-filters="sRGB">
<feFlood flood-opacity="0" result="BackgroundImageFix"/>
<feColorMatrix in="SourceAlpha" type="matrix" values="0 0 0 0 0 0 0 0 0 0 0 0 0 0 0 0 0 0 127 0" result="hardAlpha"/>
<feOffset dy="15"/>
<feGaussianBlur stdDeviation="5"/>
<feComposite in2="hardAlpha" operator="out"/>
<feColorMatrix type="matrix" values="0 0 0 0 0 0 0 0 0 0 0 0 0 0 0 0 0 0 0.05 0"/>
<feBlend mode="normal" in2="BackgroundImageFix" result="effect1_dropShadow_1_2284"/>
<feColorMatrix in="SourceAlpha" type="matrix" values="0 0 0 0 0 0 0 0 0 0 0 0 0 0 0 0 0 0 127 0" result="hardAlpha"/>
<feOffset dy="30"/>
<feGaussianBlur stdDeviation="10"/>
<feComposite in2="hardAlpha" operator="out"/>
<feColorMatrix type="matrix" values="0 0 0 0 0 0 0 0 0 0 0 0 0 0 0 0 0 0 0.1 0"/>
<feBlend mode="normal" in2="effect1_dropShadow_1_2284" result="effect2_dropShadow_1_2284"/>
<feColorMatrix in="SourceAlpha" type="matrix" values="0 0 0 0 0 0 0 0 0 0 0 0 0 0 0 0 0 0 127 0" result="hardAlpha"/>
<feOffset dy="50"/>
<feGaussianBlur stdDeviation="20"/>
<feComposite in2="hardAlpha" operator="out"/>
<feColorMatrix type="matrix" values="0 0 0 0 0 0 0 0 0 0 0 0 0 0 0 0 0 0 0.15 0"/>
<feBlend mode="normal" in2="effect2_dropShadow_1_2284" result="effect3_dropShadow_1_2284"/>
<feColorMatrix in="SourceAlpha" type="matrix" values="0 0 0 0 0 0 0 0 0 0 0 0 0 0 0 0 0 0 127 0" result="hardAlpha"/>
<feOffset dy="100"/>
<feGaussianBlur stdDeviation="40"/>
<feComposite in2="hardAlpha" operator="out"/>
<feColorMatrix type="matrix" values="0 0 0 0 0 0 0 0 0 0 0 0 0 0 0 0 0 0 0.2 0"/>
<feBlend mode="normal" in2="effect3_dropShadow_1_2284" result="effect4_dropShadow_1_2284"/>
<feColorMatrix in="SourceAlpha" type="matrix" values="0 0 0 0 0 0 0 0 0 0 0 0 0 0 0 0 0 0 127 0" result="hardAlpha"/>
<feOffset dy="10"/>
<feGaussianBlur stdDeviation="6"/>
<feComposite in2="hardAlpha" operator="out"/>
<feColorMatrix type="matrix" values="0 0 0 0 0 0 0 0 0 0 0 0 0 0 0 0 0 0 0.2 0"/>
<feBlend mode="normal" in2="effect4_dropShadow_1_2284" result="effect5_dropShadow_1_2284"/>
<feBlend mode="normal" in="SourceGraphic" in2="effect5_dropShadow_1_2284" result="shape"/>
</filter>
</defs>
</svg>
