<svg width="34" height="34" viewBox="0 0 34 34" fill="none" xmlns="http://www.w3.org/2000/svg">
<path d="M4.84578 15.3379H14.1349C15.7108 15.3379 16.9883 14.0604 16.9883 12.4846V3.19122C16.9883 1.61539 15.7108 0.337891 14.1349 0.337891H4.84161C3.26578 0.337891 1.98828 1.61539 1.98828 3.19122V12.4804C1.98828 14.0587 3.26745 15.3379 4.84578 15.3379Z" fill="#43A047"/>
<path d="M4.98277 13.6711H13.9953C14.7278 13.6711 15.3219 13.0769 15.3219 12.3436V3.33189C15.3219 2.59856 14.7278 2.00439 13.9944 2.00439H4.98027C4.24861 2.00439 3.65527 2.59773 3.65527 3.32939V12.3436C3.65527 13.0769 4.24944 13.6711 4.98277 13.6711Z" fill="#E8F5E9"/>
<path d="M21.5128 15.3379H30.8019C32.3778 15.3379 33.6553 14.0604 33.6553 12.4846V3.19122C33.6553 1.61539 32.3778 0.337891 30.8019 0.337891H21.5086C19.9328 0.337891 18.6553 1.61539 18.6553 3.19122V12.4804C18.6553 14.0587 19.9344 15.3379 21.5128 15.3379Z" fill="#90A4AE"/>
<path d="M21.6488 13.6711H30.6613C31.3938 13.6711 31.988 13.0769 31.988 12.3436V3.33189C31.988 2.59856 31.3938 2.00439 30.6605 2.00439H21.6463C20.9146 2.00439 20.3213 2.59773 20.3213 3.32939V12.3436C20.3213 13.0769 20.9155 13.6711 21.6488 13.6711Z" fill="#ECEFF1"/>
<path d="M8.67281 11.4994L5.07031 8.09937L6.21448 6.8877L8.63781 9.17603L13.0661 4.74854L14.2445 5.92687L8.67281 11.4994Z" fill="#43A047"/>
<path d="M9.07161 27.0046C7.92078 27.0046 6.98828 26.0721 6.98828 24.9212V12.4212C6.98828 11.2704 7.92078 10.3379 9.07161 10.3379C10.2224 10.3379 11.1549 11.2704 11.1549 12.4212V24.9212C11.1549 26.0721 10.2224 27.0046 9.07161 27.0046Z" fill="#FFA726"/>
<path d="M13.2386 32.0042C12.0878 32.0042 11.1553 31.0717 11.1553 29.9209V20.7542C11.1553 19.6034 12.0878 18.6709 13.2386 18.6709C14.3894 18.6709 15.3219 19.6034 15.3219 20.7542V29.9209C15.3219 31.0717 14.3894 32.0042 13.2386 32.0042Z" fill="#FFA726"/>
<path d="M17.4046 32.0042C16.2538 32.0042 15.3213 31.0717 15.3213 29.9209V20.7542C15.3213 19.6034 16.2538 18.6709 17.4046 18.6709C18.5555 18.6709 19.488 19.6034 19.488 20.7542V29.9209C19.488 31.0717 18.5555 32.0042 17.4046 32.0042Z" fill="#FFA726"/>
<path d="M23.6549 27.6651L19.4883 31.8317V20.6951C19.4883 19.5584 20.4099 18.6367 21.5466 18.6367H21.5974C22.7341 18.6367 23.6558 19.5584 23.6558 20.6951L23.6549 27.6651Z" fill="#FFA726"/>
<path d="M6.98837 20.6288V26.1171L4.47337 23.4238C3.56837 22.5188 2.08004 22.3854 1.1292 23.2413C0.115035 24.1546 0.0842017 25.7179 1.0367 26.6704L4.5917 30.7254C6.22837 32.5921 8.59004 33.6629 11.0734 33.6629H17.2084C20.7559 33.6629 23.6325 30.7871 23.6325 27.2388V20.6279H6.98837V20.6288Z" fill="#FFA726"/>
</svg>
